<svg xmlns="http://www.w3.org/2000/svg" width="195" height="88" fill="none" viewBox="0 0 195 88">
    <g clip-path="url(#clip0)">
        <path fill="#F57D14" d="M39.181 78.271c-21.64 0-39.183-17.524-39.183-39.137C-.002 17.52 17.541-.001 39.181-.001s39.182 17.52 39.182 39.135c0 7.344-2.024 14.216-5.547 20.089-.115.19-.404.124-.436-.096-1.344-9.618-7.227-14.918-15.79-16.463-.742-.134-.88-.591.102-.676 2.612-.226 6.335-.188 8.227.153.114-.986.164-1.99.164-3.007 0-14.288-11.597-25.87-25.902-25.87-14.305 0-25.902 11.582-25.902 25.87s11.597 25.87 25.902 25.87c.407 0 .814.005 1.217-.014-.433-2.512-.566-5.066-.488-6.995.065-1.578.385-1.795 1.098-.567 3.584 6.17 8.728 11.79 18.727 13.99 8.175 1.8 16.372 3.927 25.235 15.103.786.993-.416 1.987-1.32 1.187-9.017-7.98-17.165-10.552-24.674-10.552-8.359 0-14.054 1.115-19.795 1.115zm19.89-16.456c-.788 0-1.445.275-1.849.773-1.035 1.274-.57 3.517 1.016 4.9.691.604 1.688.966 2.666.966.996 0 1.827-.374 2.34-1.051.923-1.234.392-2.984-1.352-4.456-.862-.729-1.865-1.132-2.822-1.132zm8.687-6.403c-.75-.284-1.346-.058-1.63.461-.431.786-.113 2.34.755 3.693.88 1.372 1.627 2.067 2.222 2.067.544 0 1.087-.71.83-2.425-.152-1.024-.723-3.248-2.177-3.796zm45.676-20.332l-3.154-3.788c-.33-.397-.048-1 .471-1h6.597c.314-.934.492-1.933.492-2.969 0-4.746-3.537-8.838-8.391-8.838-4.855 0-8.392 4.092-8.392 8.838 0 4.746 3.537 8.78 8.392 8.78 1.471 0 2.818-.375 3.985-1.023zm14.271 6.403c.341.378.061.988-.456.988h-7.199c-.294 0-.571-.13-.759-.355l-1.22-1.466c-2.486 1.61-5.445 2.549-8.622 2.549-8.764 0-15.895-7.122-15.895-15.876s7.131-15.876 15.895-15.876 15.894 7.122 15.894 15.876c0 3.155-.929 6.097-2.526 8.571l4.888 5.589zm66.512-29.305h-5.876c-.431 0-.781.35-.781.78v28.73c0 .43.35.78.781.78h5.876c.432 0 .782-.35.782-.78v-28.73c0-.43-.35-.78-.782-.78zm-9.888 0h-6.574c-.344 0-.647.222-.748.549l-5.202 16.977-5.717-16.996c-.107-.317-.406-.53-.742-.53h-4.588c-.336 0-.635.213-.741.53l-5.718 16.996-5.203-16.977c-.1-.327-.404-.55-.747-.55h-6.575c-.251 0-.488.12-.634.323-.147.202-.187.462-.107.697l9.656 28.745c.106.316.406.53.741.53h5.219c.336 0 .635-.214.741-.53l5.662-16.793 5.662 16.793c.106.316.405.53.741.53h5.218c.337 0 .635-.214.742-.53l9.656-28.745c.079-.235.04-.495-.107-.697-.147-.202-.383-.322-.635-.322zm-45.785.78v28.73c0 .43-.35.78-.782.78h-5.875c-.432 0-.782-.35-.782-.78v-28.73c0-.43.35-.78.782-.78h5.875c.432 0 .782.35.782.78z"/>
        <path fill="#2A303B" d="M100.647 64.654c1.374 0 2.148-.792 2.148-2.029 0-1.257-.813-2.088-2.187-2.088h-2.322v4.117h2.361zm-4.858-11.578h8.439v2.146h-5.942v3.17h2.748c2.516 0 4.296 1.623 4.296 4.233 0 2.474-1.741 4.175-4.237 4.175h-5.304V53.076zM110.538 65.157c1.374 0 2.265-1.392 2.265-2.59v-.27h-.426c-1.239 0-3.329.174-3.329 1.565 0 .657.503 1.295 1.49 1.295zm1.82-4.542h.425v-.136c0-1.295-.832-1.74-1.858-1.74-.968 0-1.954.406-2.748.948l-.909-1.76c.812-.656 2.399-1.217 3.87-1.217 2.574 0 4.103 1.43 4.103 3.924V66.8h-2.283v-.831c0-.406.057-.715.057-.715h-.038c-.6 1.044-1.781 1.778-3.116 1.778-1.781 0-3.251-1.16-3.251-2.957 0-2.958 3.56-3.46 5.748-3.46zM117.738 56.942h2.458v3.808h4.22v-3.808h2.457V66.8h-2.457v-3.982h-4.22V66.8h-2.458v-9.858zM129.506 56.942h2.457v3.77h1.201l2.4-3.77h2.729l-3.136 4.697v.039l3.522 5.122h-2.844l-2.594-4h-1.278v4h-2.457v-9.858z"/>
    </g>
    <defs>
        <clipPath id="clip0">
            <path fill="#fff" d="M0 0H195V88H0z"/>
        </clipPath>
    </defs>
</svg>
